{
  "accessors": [
    {
      "bufferView": 2,
      "componentType": 5126,
      "count": 36,
      "max": [
        2.1627678871154785,
        -28.201253890991211,
        3.3922228813171387
      ],
      "min": [
        -2.1627678871154785,
        -29.949249267578125,
        2.8143010139465332
      ],
      "type": "VEC3"
    },
    {
      "bufferView": 2,
      "byteOffset": 432,
      "componentType": 5126,
      "count": 36,
      "max": [
        0.70702260732650757,
        0.99985033273696899,
        0.99994945526123047
      ],
      "min": [
        -0.7069736123085022,
        -0.99986559152603149,
        -0.99960345029830933
      ],
      "type": "VEC3"
    },
    {
      "bufferView": 3,
      "componentType": 5126,
      "count": 36,
      "max": [
        0.94025582075119019,
        0.99741894006729126,
        0.99986553192138672,
        1
      ],
      "min": [
        -0.94028377532958984,
        0.016401072964072227,
        -0.2631363570690155,
        -1
      ],
      "type": "VEC4"
    },
    {
      "bufferView": 1,
      "componentType": 5126,
      "count": 36,
      "max": [
        0.087968997657299042,
        0.24698899686336517
      ],
      "min": [
        0.0638900026679039,
        0.21668300032615662
      ],
      "type": "VEC2"
    },
    {
      "bufferView": 0,
      "componentType": 5125,
      "count": 96,
      "max": [
        35
      ],
      "min": [
        0
      ],
      "type": "SCALAR"
    },
    {
      "bufferView": 2,
      "byteOffset": 864,
      "componentType": 5126,
      "count": 4866,
      "max": [
        31.663909912109375,
        36.047283172607422,
        12.417654037475586
      ],
      "min": [
        -31.663909912109375,
        -33.748867034912109,
        -4.3881587982177734
      ],
      "type": "VEC3"
    },
    {
      "bufferView": 2,
      "byteOffset": 59256,
      "componentType": 5126,
      "count": 4866,
      "max": [
        1,
        0.99985033273696899,
        1
      ],
      "min": [
        -1,
        -0.99991154670715332,
        -1
      ],
      "type": "VEC3"
    },
    {
      "bufferView": 3,
      "byteOffset": 576,
      "componentType": 5126,
      "count": 4866,
      "max": [
        0.99989712238311768,
        1,
        0.99916660785675049,
        1
      ],
      "min": [
        -0.99989712238311768,
        -0.99998503923416138,
        -0.9999116063117981,
        -1
      ],
      "type": "VEC4"
    },
    {
      "bufferView": 1,
      "byteOffset": 288,
      "componentType": 5126,
      "count": 4866,
      "max": [
        0.99133801460266113,
        0.99164700508117676
      ],
      "min": [
        0.0032800000626593828,
        0.026893999427556992
      ],
      "type": "VEC2"
    },
    {
      "bufferView": 0,
      "byteOffset": 384,
      "componentType": 5125,
      "count": 25824,
      "max": [
        4865
      ],
      "min": [
        0
      ],
      "type": "SCALAR"
    }
  ],
  "asset": {
    "extras": {
      "author": "Akiko.Tomiyoshi (https://sketchfab.com/Akiko.Tomiyoshi)",
      "license": "CC-BY-4.0 (http://creativecommons.org/licenses/by/4.0/)",
      "source": "https://sketchfab.com/3d-models/boeing-klm-fb99aa884587417c9f205f848611278b",
      "title": "Boeing KLM"
    },
    "generator": "Sketchfab-5.41.0",
    "version": "2.0"
  },
  "bufferViews": [
    {
      "buffer": 0,
      "byteLength": 103680,
      "byteOffset": 0,
      "name": "floatBufferViews",
      "target": 34963
    },
    {
      "buffer": 0,
      "byteLength": 39216,
      "byteOffset": 103680,
      "byteStride": 8,
      "name": "floatBufferViews",
      "target": 34962
    },
    {
      "buffer": 0,
      "byteLength": 117648,
      "byteOffset": 142896,
      "byteStride": 12,
      "name": "floatBufferViews",
      "target": 34962
    },
    {
      "buffer": 0,
      "byteLength": 78432,
      "byteOffset": 260544,
      "byteStride": 16,
      "name": "floatBufferViews",
      "target": 34962
    }
  ],
  "buffers": [
    {
      "byteLength": 338976,
      "uri": "scene.bin"
    }
  ],
  "images": [
    {
      "uri": "textures/main_body_baseColor.png"
    }
  ],
  "materials": [
    {
      "alphaMode": "BLEND",
      "doubleSided": true,
      "emissiveFactor": [
        0,
        0,
        0
      ],
      "name": "front_window",
      "pbrMetallicRoughness": {
        "baseColorFactor": [
          0.016302000000000001,
          0.016302000000000001,
          0.016302000000000001,
          0.59999999999999998
        ],
        "metallicFactor": 1,
        "roughnessFactor": 0.1968368902
      }
    },
    {
      "doubleSided": true,
      "emissiveFactor": [
        0,
        0,
        0
      ],
      "name": "main_body",
      "pbrMetallicRoughness": {
        "baseColorFactor": [
          1,
          1,
          1,
          1
        ],
        "baseColorTexture": {
          "index": 0,
          "texCoord": 0
        },
        "metallicFactor": 0,
        "roughnessFactor": 0.80465199310000002
      }
    }
  ],
  "meshes": [
    {
      "primitives": [
        {
          "attributes": {
            "NORMAL": 1,
            "POSITION": 0,
            "TANGENT": 2,
            "TEXCOORD_0": 3
          },
          "indices": 4,
          "material": 0,
          "mode": 4
        }
      ]
    },
    {
      "primitives": [
        {
          "attributes": {
            "NORMAL": 6,
            "POSITION": 5,
            "TANGENT": 7,
            "TEXCOORD_0": 8
          },
          "indices": 9,
          "material": 1,
          "mode": 4
        }
      ]
    }
  ],
  "nodes": [
    {
      "children": [
        1
      ],
      "name": "RootNode (gltf orientation matrix)",
      "rotation": [
        -0.70710678118654746,
        -0,
        -0,
        0.70710678118654757
      ]
    },
    {
      "children": [
        2
      ],
      "name": "RootNode (model correction matrix)"
    },
    {
      "children": [
        3,
        4
      ],
      "name": "boeing_klm.obj.cleaner.materialmerger.gles"
    },
    {
      "mesh": 0,
      "name": ""
    },
    {
      "mesh": 1,
      "name": ""
    }
  ],
  "samplers": [
    {
      "magFilter": 9729,
      "minFilter": 9987,
      "wrapS": 10497,
      "wrapT": 10497
    }
  ],
  "scene": 0,
  "scenes": [
    {
      "name": "OSG_Scene",
      "nodes": [
        0
      ]
    }
  ],
  "textures": [
    {
      "sampler": 0,
      "source": 0
    }
  ]
}

